<?xml version="1.0" encoding="UTF-8"?>
<svg xmlns="http://www.w3.org/2000/svg" viewBox="0 0 100 100" role="img" aria-label="fatima portrait">
  <rect width="100" height="100" fill="#FFF8E7" rx="6"/>
  <path d="M22 42 Q50 18 78 42 L78 68 Q50 58 22 68 Z" fill="#5DADE2" stroke="#2D2D2D" stroke-width="2"/>
<ellipse cx="50" cy="52" rx="26" ry="28" fill="#D4A574" stroke="#2D2D2D" stroke-width="2"/>
  <circle cx="40" cy="48" r="3" fill="#2D2D2D"/>
<circle cx="60" cy="48" r="3" fill="#2D2D2D"/>
  <rect x="30" y="42" width="18" height="14" rx="3" fill="none" stroke="#2D2D2D" stroke-width="2"/>
<rect x="52" y="42" width="18" height="14" rx="3" fill="none" stroke="#2D2D2D" stroke-width="2"/>
<line x1="48" y1="49" x2="52" y2="49" stroke="#2D2D2D" stroke-width="2"/>
  <path d="M50 52 L47 58 L53 58 Z" fill="#2D2D2D" opacity="0.6"/>
  <path d="M42 64 Q50 69 58 64" fill="none" stroke="#2D2D2D" stroke-width="2" stroke-linecap="round"/>
  <path d="M28 78 Q50 88 72 78 L76 98 L24 98 Z" fill="#8E44AD" stroke="#2D2D2D" stroke-width="2"/>
</svg>