<?xml version="1.0" encoding="UTF-8"?>
<svg xmlns="http://www.w3.org/2000/svg" viewBox="0 0 100 100" role="img" aria-label="nora portrait">
  <rect width="100" height="100" fill="#FFF8E7" rx="6"/>
  <path d="M28 78 Q50 88 72 78 L76 98 L24 98 Z" fill="#FF9800" stroke="#2D2D2D" stroke-width="2"/>
  <ellipse cx="50" cy="52" rx="24" ry="28" fill="#F5D0A9" stroke="#2D2D2D" stroke-width="2"/>
  <path d="M22 40 Q30 12 50 18 Q70 12 78 40 Q84 55 72 58 Q50 48 28 58 Q16 55 22 40 Z" fill="#C0392B" stroke="#2D2D2D" stroke-width="2"/>
  
  <circle cx="40" cy="48" r="3" fill="#2D2D2D"/>
<circle cx="60" cy="48" r="3" fill="#2D2D2D"/>
  <rect x="30" y="42" width="18" height="14" rx="3" fill="none" stroke="#2D2D2D" stroke-width="2"/>
<rect x="52" y="42" width="18" height="14" rx="3" fill="none" stroke="#2D2D2D" stroke-width="2"/>
<line x1="48" y1="49" x2="52" y2="49" stroke="#2D2D2D" stroke-width="2"/>
  <path d="M50 52 L47 58 L53 58 Z" fill="#2D2D2D" opacity="0.6"/>
  <path d="M42 64 Q50 69 58 64" fill="none" stroke="#2D2D2D" stroke-width="2" stroke-linecap="round"/>
  
</svg>