<?xml version="1.0" encoding="UTF-8"?>
<svg xmlns="http://www.w3.org/2000/svg" viewBox="0 0 100 100" role="img" aria-label="theo portrait">
  <rect width="100" height="100" fill="#FFF8E7" rx="6"/>
  <path d="M28 78 Q50 88 72 78 L76 98 L24 98 Z" fill="#2ECC71" stroke="#2D2D2D" stroke-width="2"/>
  <ellipse cx="50" cy="52" rx="26" ry="26" fill="#F5D0A9" stroke="#2D2D2D" stroke-width="2"/>
  <path d="M26 36 Q50 10 74 36 L72 52 Q50 44 28 52 Z" fill="#F4C430" stroke="#2D2D2D" stroke-width="2"/>
  <rect x="22" y="22" width="56" height="14" rx="4" fill="#E67E22" stroke="#2D2D2D" stroke-width="2"/>
<rect x="30" y="10" width="40" height="18" rx="6" fill="#E67E22" stroke="#2D2D2D" stroke-width="2"/>
  <circle cx="40" cy="48" r="3" fill="#2D2D2D"/>
<circle cx="60" cy="48" r="3" fill="#2D2D2D"/>
  <rect x="30" y="42" width="18" height="14" rx="3" fill="none" stroke="#2D2D2D" stroke-width="2"/>
<rect x="52" y="42" width="18" height="14" rx="3" fill="none" stroke="#2D2D2D" stroke-width="2"/>
<line x1="48" y1="49" x2="52" y2="49" stroke="#2D2D2D" stroke-width="2"/>
  <path d="M50 52 L47 58 L53 58 Z" fill="#2D2D2D" opacity="0.6"/>
  <line x1="43" y1="63" x2="57" y2="63" stroke="#2D2D2D" stroke-width="2" stroke-linecap="round"/>
  
</svg>