<?xml version="1.0" encoding="UTF-8"?>
<svg xmlns="http://www.w3.org/2000/svg" viewBox="0 0 100 100" role="img" aria-label="victor portrait">
  <rect width="100" height="100" fill="#FFF8E7" rx="6"/>
  <path d="M28 78 Q50 88 72 78 L76 98 L24 98 Z" fill="#795548" stroke="#2D2D2D" stroke-width="2"/>
  <ellipse cx="50" cy="52" rx="26" ry="26" fill="#C68642" stroke="#2D2D2D" stroke-width="2"/>
  <path d="M26 36 Q50 10 74 36 L72 52 Q50 44 28 52 Z" fill="#1A1A1A" stroke="#2D2D2D" stroke-width="2"/>
  <rect x="22" y="22" width="56" height="14" rx="4" fill="#455A64" stroke="#2D2D2D" stroke-width="2"/>
<rect x="30" y="10" width="40" height="18" rx="6" fill="#455A64" stroke="#2D2D2D" stroke-width="2"/>
  <circle cx="40" cy="48" r="3" fill="#2D2D2D"/>
<circle cx="60" cy="48" r="3" fill="#2D2D2D"/>
  
  <path d="M50 52 L47 58 L53 58 Z" fill="#2D2D2D" opacity="0.6"/>
  <line x1="43" y1="63" x2="57" y2="63" stroke="#2D2D2D" stroke-width="2" stroke-linecap="round"/>
  <path d="M32 58 Q50 78 68 58 L68 72 Q50 82 32 72 Z" fill="#1A1A1A" stroke="#2D2D2D" stroke-width="2"/>
</svg>